<svg xmlns="http://www.w3.org/2000/svg" width="192" height="81" viewBox="0 0 192 81">
  <g id="Group_7" data-name="Group 7" transform="translate(-39 -13)">
    <g id="Group_4" data-name="Group 4" transform="translate(125.403 28.382)">
      <text id="XSM" transform="translate(-0.403 23.618)" fill="#fff" font-size="25" font-family="SFProText-Bold, SF Pro Text" font-weight="700"><tspan x="0" y="0">XSM</tspan></text>
      <text id="Playground" transform="translate(-0.403 45.618)" fill="#fff" font-size="20" font-family="SFProText-Regular, SF Pro Text"><tspan x="0" y="0">Playground</tspan></text>
    </g>
    <g id="terminal_black_24dp" transform="translate(39 13)">
      <g id="Group_2" data-name="Group 2" transform="translate(0 0)">
        <rect id="Rectangle_2" data-name="Rectangle 2" width="81" height="81" fill="none"/>
      </g>
      <g id="Group_3" data-name="Group 3" transform="translate(6.733 13.563)">
        <path id="Path_1" data-name="Path 1" d="M62.6,4H8.733A6.731,6.731,0,0,0,2,10.733v40.4a6.731,6.731,0,0,0,6.733,6.733H62.6a6.753,6.753,0,0,0,6.733-6.733v-40.4A6.731,6.731,0,0,0,62.6,4Zm0,47.131H8.733V17.466H62.6Zm-6.733-3.366h-20.2V41.031h20.2Zm-35.348,0-4.747-4.747L24.455,34.3l-8.719-8.719,4.78-4.747L33.982,34.3Z" transform="translate(-2 -4)" fill="#fff"/>
      </g>
    </g>
  </g>
</svg>
